#!OML:ASF E:\emotionWalksFemale\Project 1\Capture day 1\Session 1\Female1.ASF
:FULLY-SPECIFIED
:DEGREES
3492
root 8.25672 15.2477 37.7818 -22.5823 -266.579 -27.377
lowerback 14.6473 -2.457 0.853309
upperback -2.31116 -2.59481 4.31344
thorax -10.6115 -1.09594 4.83145
lowerneck 8.57105 -20.3167 -15.698
upperneck -10.8292 -27.8414 15.5589
head -0.255139 -14.1511 6.59969
rclavicle -1.59028e-014 -1.74931e-014
rhumerus -28.5919 -2.84542 -63.3842
rradius 40.8707
rwrist 5.44764
rhand 170.806 -234.651
rfingers 7.12502
rthumb -163.24 -263.948
lclavicle -1.59028e-014 -1.74931e-014
lhumerus -46.7279 -2.8513 86.7492
lradius 52.0898
lwrist -2.59597
lhand -9.18738 -25.4214
lfingers 7.12502
lthumb 16.7661 3.87466
rfemur -18.6336 -1.7671 26.6701
rtibia 31.3424
rfoot -23.2381 -36.6134
rtoes 25.0762
lfemur -20.1759 19.7941 -22.3247
ltibia 58.9864
lfoot -17.4492 12.6546
ltoes -10.7546
3493
root 8.24154 15.2497 37.8137 -17.3685 -265.568 -22.2111
lowerback 14.6744 -2.49534 0.784772
upperback -2.33758 -2.64841 4.37315
thorax -10.6472 -1.11304 4.95207
lowerneck 8.54496 -20.3308 -15.7915
upperneck -10.7225 -27.8665 15.6835
head -0.183711 -14.1684 6.62262
rclavicle -3.06128e-014 5.56597e-014
rhumerus -28.304 -2.89663 -63.5271
rradius 40.5456
rwrist 5.23151
rhand 170.706 -234.957
rfingers 7.12502
rthumb -163.336 -264.262
lclavicle -3.06128e-014 5.56597e-014
lhumerus -46.7934 -2.65152 86.4882
lradius 51.7578
lwrist -2.91603
lhand -9.08406 -25.3863
lfingers 7.12502
lthumb 16.8655 3.90132
rfemur -18.7954 -2.26703 26.6641
rtibia 31.4462
rfoot -22.9424 -37.0908
rtoes 24.5451
lfemur -19.9705 20.8276 -22.9143
ltibia 58.6005
lfoot -18.0537 12.9651
ltoes -8.85134
3494
root 8.22606 15.2544 37.8413 -13.7002 -264.586 -19.1731
lowerback 14.0669 -2.46846 0.890889
upperback -2.5593 -2.60832 4.37203
thorax -10.5478 -1.10298 4.85388
lowerneck 8.81837 -20.4431 -15.8564
upperneck -10.7025 -28.0573 15.7813
head -0.167961 -14.2765 6.66044
rclavicle 1.03368e-014 -1.27222e-014
rhumerus -28.2066 -3.30752 -63.514
rradius 40.2346
rwrist 5.45227
rhand 171.259 -234.499
rfingers 7.12502
rthumb -162.805 -263.759
lclavicle 1.03368e-014 -1.27222e-014
lhumerus -46.7974 -2.70598 86.3118
lradius 51.2654
lwrist -3.09557
lhand -9.10848 -24.9822
lfingers 7.12502
lthumb 16.842 4.30744
rfemur -19.5912 -2.85074 26.7029
rtibia 31.4766
rfoot -22.8211 -37.4258
rtoes 24.3617
lfemur -20.4766 21.8785 -23.7826
ltibia 58.2196
lfoot -18.498 13.3541
ltoes -6.29689
3495
root 8.2161 15.252 37.8894 -9.48805 -263.451 -14.449
lowerback 14.5458 -2.46958 0.888693
upperback -2.43755 -2.57905 4.47749
thorax -10.6898 -1.07859 4.98939
lowerneck 8.48505 -20.7302 -16.0575
upperneck -9.80069 -28.4822 15.5654
head 0.20067 -14.4724 6.4656
rclavicle -1.05356e-014 -4.45278e-014
rhumerus -28.103 -4.2525 -63.2271
rradius 39.974
rwrist 6.96154
rhand 173.317 -233.927
rfingers 7.12502
rthumb -160.825 -263.002
lclavicle -1.05356e-014 -4.45278e-014
lhumerus -46.5307 -2.85856 86.3138
lradius 50.5219
lwrist -3.21674
lhand -8.8687 -25.1844
lfingers 7.12502
lthumb 17.0728 4.08541
rfemur -18.987 -3.14321 27.0382
rtibia 31.5434
rfoot -23.6036 -38.042
rtoes 25.1448
lfemur -19.5572 23.1498 -23.6234
ltibia 57.7873
lfoot -18.747 13.7641
ltoes -6.04166
3496
root 8.19158 15.2523 37.9181 -6.7592 -262.295 -11.9066
lowerback 14.5326 -2.54461 1.0004
upperback -2.50747 -2.64422 4.5541
thorax -10.7576 -1.10987 5.02896
lowerneck 8.28822 -20.7733 -16.0157
upperneck -9.49846 -28.5246 15.5826
head 0.323674 -14.4933 6.41437
rclavicle -2.92213e-014 7.63333e-014
rhumerus -27.8787 -4.22137 -63.5241
rradius 39.8108
rwrist 6.26226
rhand 171.708 -234.408
rfingers 7.12502
rthumb -162.372 -263.629
lclavicle -2.92213e-014 7.63333e-014
lhumerus -46.6516 -2.92141 86.3357
lradius 50.6072
lwrist -3.34435
lhand -8.71446 -24.9754
lfingers 7.12502
lthumb 17.2213 4.28153
rfemur -19.3342 -3.6214 27.198
rtibia 31.6583
rfoot -24.213 -38.2325
rtoes 25.8545
lfemur -19.6729 24.3286 -24.09
ltibia 57.4072
lfoot -19.0073 14.4602
ltoes -6.71926
3497
root 8.17281 15.2457 37.9492 -6.01316 -261.046 -11.3405
lowerback 14.4674 -2.6327 0.852541
upperback -2.57731 -2.78477 4.59301
thorax -10.7779 -1.16499 5.1884
lowerneck 7.8269 -20.7201 -15.6212
upperneck -9.01602 -28.3861 15.3138
head 0.42258 -14.4133 6.24534
rclavicle 1.31198e-014 1.27222e-014
rhumerus -27.5956 -4.9394 -63.4193
rradius 39.3291
rwrist 7.50965
rhand 172.757 -233.833
rfingers 7.12502
rthumb -161.363 -262.96
lclavicle 1.31198e-014 1.27222e-014
lhumerus -46.6929 -3.02625 86.2988
lradius 50.3565
lwrist -3.48247
lhand -8.72859 -24.5985
lfingers 7.12502
lthumb 17.2077 4.65961
rfemur -19.6109 -4.1414 27.1411
rtibia 31.7283
rfoot -25.8646 -38.1599
rtoes 28.6208
lfemur -19.6748 25.4122 -24.7177
ltibia 56.986
lfoot -19.5808 14.5122
ltoes -4.1411
3498
root 8.15461 15.2437 37.9756 -4.92583 -260.039 -10.5064
lowerback 14.2456 -2.64135 0.880071
upperback -2.65319 -2.78935 4.64315
thorax -10.7317 -1.16712 5.21807
lowerneck 7.41019 -20.7496 -15.3131
upperneck -8.57865 -28.376 14.9888
head 0.521481 -14.393 6.06355
rclavicle 5.68524e-014 -4.6118e-014
rhumerus -27.4213 -4.83772 -63.7145
rradius 39.2457
rwrist 6.62675
rhand 171.259 -234.236
rfingers 7.12502
rthumb -162.804 -263.495
lclavicle 5.68524e-014 -4.6118e-014
lhumerus -46.7367 -2.98593 86.0922
lradius 50.1572
lwrist -3.68035
lhand -8.58727 -24.2579
lfingers 7.12502
lthumb 17.3437 4.98824
rfemur -20.0115 -4.61939 27.1931
rtibia 31.8461
rfoot -27.1257 -38.0792
rtoes 31.4062
lfemur -19.7511 26.1022 -25.366
ltibia 56.5414
lfoot -20.6403 14.7774
ltoes 1.99396
3499
root 8.13515 15.235 38.0131 -3.6703 -258.756 -8.75768
lowerback 14.837 -2.70453 0.97186
upperback -2.56909 -2.81574 4.75746
thorax -10.9817 -1.17028 5.33606
lowerneck 7.36435 -20.797 -15.3385
upperneck -8.45537 -28.4449 14.9263
head 0.567492 -14.4238 6.02804
rclavicle 9.14409e-015 2.38542e-014
rhumerus -27.2722 -5.60937 -63.4621
rradius 38.9309
rwrist 7.86995
rhand 172.757 -233.6
rfingers 7.12502
rthumb -161.363 -262.728
lclavicle 9.14409e-015 2.38542e-014
lhumerus -46.577 -2.90319 85.9121
lradius 49.7145
lwrist -3.73908
lhand -8.53741 -23.8073
lfingers 7.12502
lthumb 17.3917 5.4346
rfemur -19.5545 -5.36177 27.4585
rtibia 31.9227
rfoot -27.1161 -38.7096
rtoes 31.1932
lfemur -18.9505 26.6746 -25.324
ltibia 56.1135
lfoot -21.641 15.8077
ltoes 1.02559
3500
root 8.12881 15.2409 38.034 -1.51852 -257.684 -7.76839
lowerback 13.4424 -3.0541 0.704222
upperback -2.86459 -3.36734 4.86983
thorax -10.428 -1.42983 5.6483
lowerneck 7.29237 -20.4602 -14.4323
upperneck -8.34359 -27.9142 14.4871
head 0.355956 -14.1639 5.89708
rclavicle -5.04913e-014 -2.70347e-014
rhumerus -26.7409 -4.70121 -64.5712
rradius 38.6717
rwrist 7.2163
rhand 171.473 -234.137
rfingers 7.12502
rthumb -162.598 -263.378
lclavicle -5.04913e-014 -2.70347e-014
lhumerus -46.4975 -1.60913 84.7672
lradius 48.8898
lwrist -4.06752
lhand -8.02385 -24.2042
lfingers 7.12502
lthumb 17.8859 4.99334
rfemur -20.9257 -5.85627 27.7698
rtibia 31.9407
rfoot -26.6439 -39.2415
rtoes 30.13
lfemur -20.2373 27.4959 -26.2982
ltibia 55.6639
lfoot -22.0335 17.3175
ltoes -5.15746
3501
root 8.11236 15.2452 38.0619 -0.308079 -256.473 -7.01324
lowerback 12.9688 -3.18946 0.602195
upperback -2.99801 -3.56694 4.96683
thorax -10.2694 -1.51926 5.82539
lowerneck 7.0356 -20.38 -14.1242
upperneck -7.9234 -27.7797 14.1779
head 0.415233 -14.0873 5.75285
rclavicle 1.49089e-014 -4.92986e-014
rhumerus -26.4699 -4.67107 -64.99
rradius 38.5068
rwrist 7.40085
rhand 171.382 -234.86
rfingers 7.12502
rthumb -162.686 -264.109
lclavicle 1.49089e-014 -4.92986e-014
lhumerus -46.6585 -1.5434 84.4594
lradius 48.8075
lwrist -4.0734
lhand -7.0287 -25.4416
lfingers 7.12502
lthumb 18.8432 3.66566
rfemur -21.4952 -6.34705 27.9542
rtibia 31.9284
rfoot -27.9945 -39.3292
rtoes 32.225
lfemur -20.6579 28.7685 -26.8429
ltibia 55.2923
lfoot -22.1433 17.371
ltoes -4.92258
3502
root 8.08864 15.2433 38.0921 0.490854 -255.193 -6.32559
lowerback 12.9251 -3.11983 0.845268
upperback -3.03359 -3.42294 5.00219
thorax -10.3094 -1.46006 5.69525
lowerneck 6.86485 -20.4367 -14.281
upperneck -7.67959 -27.86 14.307
head 0.564152 -14.1248 5.74972
rclavicle -3.29983e-014 5.40694e-014
rhumerus -26.4177 -5.57972 -64.8156
rradius 38.3737
rwrist 8.25657
rhand 171.537 -235.828
rfingers 7.12502
rthumb -162.536 -265.063
lclavicle -3.29983e-014 5.40694e-014
lhumerus -46.2994 -1.77222 84.6054
lradius 48.2613
lwrist -4.77335
lhand -6.16862 -26.7212
lfingers 7.12502
lthumb 19.6703 2.30358
rfemur -21.7413 -7.01623 28.1446
rtibia 31.988
rfoot -30.3443 -38.9401
rtoes 36.2813
lfemur -20.6468 29.1909 -27.2474
ltibia 54.8707
lfoot -23.1494 17.4096
ltoes -0.770316
